<svg width="302" height="302" viewBox="0 0 302 302" fill="none" xmlns="http://www.w3.org/2000/svg">
<path fill-rule="evenodd" clip-rule="evenodd" d="M40.7504 144.892C35.6715 141.286 32.7263 135.588 32.7263 129.354C32.7263 123.121 35.6715 117.423 40.7504 113.808L129.651 50.7115C134.697 47.1304 140.805 45.2896 146.996 45.5909C153.196 45.8921 159.07 48.3018 163.756 52.3682C168.441 56.4263 171.663 61.89 172.842 67.9813C174.022 74.0893 173.219 80.44 170.257 85.9037L157.112 110.143H142.118L158.392 79.8125C159.924 76.8338 160.342 73.5789 159.748 70.5166C159.162 67.4877 157.556 64.6428 155.029 62.4506C152.494 60.2501 149.44 59.0619 146.36 58.9197C143.273 58.7691 140.119 59.656 137.382 61.5972L61.8523 115.197L48.4649 124.685C46.9086 125.79 46.0551 127.438 46.0551 129.346C46.0551 131.254 46.9002 132.902 48.4649 134.006L61.8356 143.495L80.7704 156.932L51.3264 214.314C49.7952 217.293 49.3769 220.548 49.9709 223.61C50.5566 226.639 52.1631 229.484 54.69 231.676C57.2253 233.877 60.2793 235.065 63.3584 235.207C66.4458 235.358 69.6003 234.471 72.3363 232.529L147.866 178.93L161.237 169.441C162.793 168.337 163.647 166.688 163.647 164.781C163.647 162.873 162.802 161.225 161.237 160.12L147.866 150.632L139.926 145.001L128.932 137.203L137.826 120.251H164.057L170.792 107.826H197.743C203.014 107.826 207.959 109.231 212.218 111.833C216.452 114.419 219.949 118.184 222.376 122.912L227.329 132.559L266.161 208.24C269.106 213.98 269.918 220.247 268.78 226.137C267.634 232.053 264.53 237.583 259.651 241.809C254.782 246.026 248.875 248.302 242.85 248.594C236.843 248.887 230.743 247.189 225.48 243.457L187.041 216.18C185.745 215.26 184.448 214.59 183.142 214.172C181.854 213.762 180.406 213.561 178.766 213.561H126.798C125.158 213.561 123.711 213.762 122.422 214.172C121.108 214.59 119.82 215.26 118.523 216.18L80.0843 243.465C74.8297 247.197 68.7301 248.896 62.7141 248.603C56.6981 248.31 50.7826 246.034 45.9129 241.817C41.0348 237.592 37.9306 232.061 36.7843 226.145C35.6464 220.255 36.458 213.988 39.4032 208.248L63.5843 161.124L40.7504 144.892ZM108.75 143.336H116.122C117.36 143.336 118.372 144.348 118.372 145.587V157.008C118.372 157.552 118.18 158.02 117.795 158.405L116.113 160.087C115.728 160.472 115.26 160.664 114.716 160.664H110.164C109.62 160.664 109.152 160.472 108.767 160.087L107.085 158.405C106.7 158.02 106.508 157.552 106.508 157.008V145.587C106.491 144.348 107.512 143.336 108.75 143.336ZM120.221 158.848H131.643C132.881 158.848 133.893 159.861 133.893 161.099V168.471C133.893 169.709 132.881 170.721 131.643 170.721H120.221C119.678 170.721 119.209 170.529 118.824 170.144L117.142 168.462C116.757 168.077 116.565 167.609 116.565 167.065V162.513C116.565 161.969 116.757 161.501 117.142 161.116L118.824 159.434C119.209 159.041 119.678 158.848 120.221 158.848ZM118.372 172.571V183.992C118.372 185.23 117.36 186.242 116.122 186.242H108.75C107.512 186.242 106.499 185.23 106.499 183.992V172.571C106.499 172.027 106.692 171.558 107.077 171.173L108.758 169.491C109.143 169.107 109.612 168.914 110.156 168.914H114.708C115.251 168.914 115.72 169.107 116.105 169.491L117.787 171.173C118.18 171.558 118.372 172.027 118.372 172.571ZM104.65 170.73H93.2291C91.9907 170.73 90.9783 169.717 90.9783 168.479V161.108C90.9783 159.869 91.9907 158.857 93.2291 158.857H104.65C105.194 158.857 105.663 159.049 106.048 159.434L107.729 161.116C108.114 161.501 108.307 161.969 108.307 162.513V167.065C108.307 167.609 108.114 168.077 107.729 168.462L106.048 170.144C105.663 170.537 105.194 170.73 104.65 170.73ZM176.424 145.269C176.424 139.88 180.791 135.513 186.18 135.513C191.568 135.513 195.936 139.88 195.936 145.269C195.936 150.657 191.568 155.025 186.18 155.025C180.791 155.025 176.424 150.657 176.424 145.269ZM186.18 174.554C191.568 174.554 195.936 178.921 195.936 184.31C195.936 189.698 191.568 194.066 186.18 194.066C180.791 194.066 176.424 189.698 176.424 184.31C176.424 178.921 180.791 174.554 186.18 174.554ZM210.812 155.033C216.201 155.033 220.569 159.401 220.569 164.789C220.569 170.178 216.201 174.545 210.812 174.545C205.424 174.545 201.056 170.178 201.056 164.789C201.048 159.401 205.416 155.033 210.812 155.033Z" fill="url(#paint0_linear_1_4)"/>
<defs>
<linearGradient id="paint0_linear_1_4" x1="11862.5" y1="53.682" x2="11859" y2="20345" gradientUnits="userSpaceOnUse">
<stop stop-color="#32F8CF"/>
<stop offset="1" stop-color="#F5F61B"/>
</linearGradient>
</defs>
</svg>
